<svg id="Capa_1" enable-background="new 0 0 512 512" height="512" viewBox="0 0 512 512" width="512" xmlns="http://www.w3.org/2000/svg"><g><g><g><g><g><g><g><circle cx="256" cy="256" fill="#fdba12" r="256"/></g></g></g></g></g></g><g><path d="m136.138 375.315 137.193 136.107c128.25-8.573 230.64-111.596 238.219-240.116l-132.683-131.525z" fill="#ff9100"/></g><g><path d="m256 382.747h147.005v42.377h-147.005z" fill="#414952"/></g><g><g><circle cx="256" cy="256" fill="#555a66" r="169.124"/></g><g><path d="m256 86.875c-.038 0-.075.001-.113.001v338.246c.038 0 .075.001.113.001 93.405 0 169.124-75.72 169.124-169.125s-75.719-169.123-169.124-169.123z" fill="#333940"/></g><g><circle cx="256" cy="256" fill="#414952" r="41.871"/></g><g><path d="m256 214.128c-.038 0-.075.003-.113.003v83.737c.038 0 .075.003.113.003 23.125 0 41.871-18.747 41.871-41.872s-18.746-41.871-41.871-41.871z" fill="#23272b"/></g><g><g><circle cx="256" cy="147.783" fill="#707789" r="37.215"/></g><g><path d="m256 110.569c-.038 0-.075.003-.113.003v74.424c.038 0 .075.003.113.003 20.553 0 37.215-16.662 37.215-37.215 0-20.554-16.662-37.215-37.215-37.215z" fill="#555a66"/></g><g><circle cx="256" cy="364.217" fill="#707789" r="37.215"/></g><g><path d="m256 327.002c-.038 0-.075.003-.113.003v74.424c.038 0 .075.003.113.003 20.553 0 37.215-16.662 37.215-37.215s-16.662-37.215-37.215-37.215z" fill="#555a66"/></g></g><g><g><ellipse cx="162.622" cy="201.307" fill="#707789" rx="37.214" ry="37.215" transform="matrix(.995 -.102 .102 .995 -19.763 17.715)"/></g><g><ellipse cx="349.378" cy="310.693" fill="#555a66" rx="37.215" ry="37.215" transform="matrix(.984 -.177 .177 .984 -49.499 66.782)"/></g></g><g><g><ellipse cx="349.378" cy="201.307" fill="#555a66" rx="37.215" ry="37.214" transform="matrix(.102 -.995 .995 .102 113.346 528.229)"/></g><g><ellipse cx="162.622" cy="310.693" fill="#707789" rx="37.215" ry="37.215" transform="matrix(.177 -.984 .984 .177 -171.959 415.725)"/></g></g></g></g></svg>